<?xml version="1.0" encoding="utf-8"?>
<!-- Generator: Adobe Illustrator 24.2.1, SVG Export Plug-In . SVG Version: 6.00 Build 0)  -->
<svg version="1.1" id="レイヤー_1" xmlns="http://www.w3.org/2000/svg" xmlns:xlink="http://www.w3.org/1999/xlink" x="0px"
	 y="0px" viewBox="0 0 1000 300" style="enable-background:new 0 0 1000 300;" xml:space="preserve">
<style type="text/css">
	.st0{fill:#FF7700;}
	.st1{fill:#FFFFFF;}
</style>
<g>
	<g>
		<circle class="st0" cx="151" cy="150.6" r="150"/>
	</g>
	<g>
		<path class="st1" d="M64.7,84.5c13.5,0,67.4,0.7,86.3,0.7s72.8-0.7,86.3-0.7s29.7-24.3,16.9-41.2C248.1,49.4,211,56.2,151,56.2
			S53.9,49.4,47.8,43.4C35,60.2,51.2,84.5,64.7,84.5z"/>
		<path class="st1" d="M240,94.7c0-2.2-1.8-4.1-4.1-4.1H66c-2.2,0-4.1,1.8-4.1,4.1s1.8,4,4.1,4h170C238.2,98.7,240,96.9,240,94.7z"
			/>
		<polygon class="st1" points="47.7,257.9 98.3,257.9 98.3,237 51.1,237 		"/>
		<path class="st1" d="M55.8,156.7h16.7c0.8-6.9,1.5-14.1,2.1-21.6H52.5L55.8,156.7z"/>
		<path class="st1" d="M59.9,230.2h32.4c7.4-35.8,13.5-126.1,13.5-126.1H81.5C80.1,185.7,59.9,230.2,59.9,230.2z"/>
		<polygon class="st1" points="203.7,237 203.7,257.9 254.3,257.9 250.9,237 		"/>
		<path class="st1" d="M178.6,172.3l-29.7-27.9l-43.1-40.2c-5.2,4.2-10.6,8.9-16.7,13.7l45.1,42.3l29.7,27.9l46,42.1
			c4.4-6.4,7.7-12.2,11.6-17.6L178.6,172.3L178.6,172.3z"/>
		<path class="st1" d="M246.2,156.7l3.4-21.6h-22.1c0.6,7.5,1.3,14.7,2.1,21.6H246.2z"/>
		<path class="st1" d="M242.1,230.2c0,0-20.3-44.5-21.6-126.1h-24.3c0,0,6.1,90.4,13.5,126.1H242.1z"/>
	</g>
</g>
<g>
	<path class="st0" d="M472.2,210.6c-13.9,0-26.6-2.9-38.6-8.6v29h-50.3v-22.7c-6.2,0.7-12.7,1-19.7,1h-31.9v-48.6h26.8
		c49.2,0,60.6-9.3,60.6-25.9H335V89.6h48.2V78h50.3v11.7h44.6v28.1c0,12.4-4.1,28.8-14.2,44.3h24.5v48.6H472.2z"/>
	<path class="st0" d="M533.1,231h-25.9v-48.6h25.9c38.3,0,64.7-5.8,75.2-26.3h-43.6l-1-18c-0.3-6.7-2.7-8.8-6.9-8.8h-0.5
		c0.2,0.5,0.2,1.2,0.2,1.9l1.4,24.9h-44.1v-18c0-6.3-2.6-8.8-6.9-8.8h-2.4V80.2h6.2c25.1,0,38.4,14.1,43.8,36.7V80.2h6
		c30,0,43.2,20.8,46,51.1l2.2,24.2c3.1-6.3,4.6-13.9,4.6-23.2v-1.7h48.7v1.7C661.9,198.8,614.4,231,533.1,231z M620.8,98.4V78.8
		h41.9v19.6H620.8z M620.8,124.1v-19.4h41.9v19.4H620.8z"/>
	<path class="st0" d="M728.2,230.3h-44.4v-49.1h44.8c44.1,0,52.7-16.6,52.7-36.6v-14.1h-45.5c-9.1,13.7-27.5,31.9-58.7,31.9v-51
		c13.2,0,24.4-12.5,24.4-25.4v-3.8h130.1v62.3C831.5,188.7,813.8,230.3,728.2,230.3z"/>
	<path class="st0" d="M848.1,228.8v-48h52.2v-24.5c0-17.5-1-22.1-7.9-24h-42.9V84.5h148.1v47.7h-51.5c3.8,5.5,4.3,12.4,4.3,20.4
		v28.1h48.2v48H848.1z"/>
</g>
</svg>
