<svg width="40" height="42" viewBox="0 0 40 42" fill="none" xmlns="http://www.w3.org/2000/svg">
<path d="M20.25 15.35V9.2H14.05V6.2H20.25V0.0500031H23.25V6.2H29.4V9.2H23.25V15.35H20.25ZM11.5 42C10.5 42 9.65001 41.65 8.95001 40.95C8.25001 40.25 7.90001 39.4 7.90001 38.4C7.90001 37.4 8.25001 36.55 8.95001 35.85C9.65001 35.15 10.5 34.8 11.5 34.8C12.5 34.8 13.35 35.15 14.05 35.85C14.75 36.55 15.1 37.4 15.1 38.4C15.1 39.4 14.75 40.25 14.05 40.95C13.35 41.65 12.5 42 11.5 42ZM31.7 42C30.7 42 29.85 41.65 29.15 40.95C28.45 40.25 28.1 39.4 28.1 38.4C28.1 37.4 28.45 36.55 29.15 35.85C29.85 35.15 30.7 34.8 31.7 34.8C32.7 34.8 33.55 35.15 34.25 35.85C34.95 36.55 35.3 37.4 35.3 38.4C35.3 39.4 34.95 40.25 34.25 40.95C33.55 41.65 32.7 42 31.7 42ZM11.5 31.65C10.1 31.65 9.07501 31.0833 8.42501 29.95C7.77501 28.8167 7.78334 27.6667 8.45001 26.5L11.5 20.95L4.00001 5H0.100006V2H5.90001L14.4 20.2H29L36.8 6.2L39.4 7.6L31.75 21.45C31.45 22.0167 31.0417 22.45 30.525 22.75C30.0083 23.05 29.4 23.2 28.7 23.2H13.7L10.6 28.65H35.3V31.65H11.5Z" fill="white"/>
</svg>
