<svg width="48" height="48" viewBox="0 0 48 48" fill="none" xmlns="http://www.w3.org/2000/svg">
<path d="M14.35 43.95C13.35 43.95 12.5 43.6 11.8 42.9C11.1 42.2 10.75 41.35 10.75 40.35C10.75 39.35 11.1 38.5 11.8 37.8C12.5 37.1 13.35 36.75 14.35 36.75C15.3167 36.75 16.1583 37.1 16.875 37.8C17.5917 38.5 17.95 39.35 17.95 40.35C17.95 41.35 17.6 42.2 16.9 42.9C16.2 43.6 15.35 43.95 14.35 43.95ZM34.35 43.95C33.35 43.95 32.5 43.6 31.8 42.9C31.1 42.2 30.75 41.35 30.75 40.35C30.75 39.35 31.1 38.5 31.8 37.8C32.5 37.1 33.35 36.75 34.35 36.75C35.3167 36.75 36.1583 37.1 36.875 37.8C37.5917 38.5 37.95 39.35 37.95 40.35C37.95 41.35 37.6 42.2 36.9 42.9C36.2 43.6 35.35 43.95 34.35 43.95ZM11.75 10.95L17.25 22.35H31.65L37.9 10.95H11.75ZM10.25 7.95H39.7C40.7667 7.95 41.4417 8.275 41.725 8.925C42.0083 9.575 41.9167 10.3 41.45 11.1L34.7 23.25C34.3667 23.8167 33.9 24.3083 33.3 24.725C32.7 25.1417 32.05 25.35 31.35 25.35H16.2L13.4 30.55H37.95V33.55H13.85C12.45 33.55 11.4417 33.0833 10.825 32.15C10.2083 31.2167 10.2167 30.1667 10.85 29L14.05 23.1L6.45 7H2.55V4H8.4L10.25 7.95ZM17.25 22.35H31.65H17.25Z" fill="white"/>
</svg>
