<?xml version="1.0" encoding="utf-8"?>
<!-- Generator: Adobe Illustrator 24.2.1, SVG Export Plug-In . SVG Version: 6.00 Build 0)  -->
<svg version="1.1" id="レイヤー_1" xmlns="http://www.w3.org/2000/svg" xmlns:xlink="http://www.w3.org/1999/xlink" x="0px"
	 y="0px" viewBox="0 0 1000 1000" style="enable-background:new 0 0 1000 1000;" xml:space="preserve">
<style type="text/css">
	.st0{fill:#FF7700;}
	.st1{fill:#FFFFFF;}
</style>
<g>
	<circle class="st0" cx="500" cy="500" r="500"/>
</g>
<g>
	<path class="st1" d="M212.2,279.7c45,0,224.8,2.2,287.8,2.2s242.8-2.2,287.8-2.2s98.9-80.9,56.2-137.2
		c-20.2,20.2-143.9,42.7-344,42.7s-323.7-22.5-344-42.7C113.3,198.7,167.3,279.7,212.2,279.7z"/>
	<path class="st1" d="M796.8,313.4c0-7.4-6-13.5-13.5-13.5H216.7c-7.4,0-13.5,6-13.5,13.5s6,13.5,13.5,13.5h566.6
		C790.7,326.9,796.8,320.8,796.8,313.4z"/>
	<polygon class="st1" points="155.8,857.5 324.4,857.5 324.4,787.8 167,787.8 	"/>
	<path class="st1" d="M182.8,520.2h55.6c2.7-23,5.1-47,7-71.9h-73.8L182.8,520.2z"/>
	<path class="st1" d="M196.3,765.3h107.9c24.7-119.2,45-420.4,45-420.4h-80.9C263.7,616.9,196.3,765.3,196.3,765.3z"/>
	<polygon class="st1" points="675.6,787.8 675.6,857.5 844.2,857.5 833,787.8 	"/>
	<path class="st1" d="M591.9,572.2l-99.1-93.1L349,345c-17.2,14-35.4,29.5-55.7,45.5l150.2,141l99.1,93.1L696,764.9
		c14.7-21.2,25.8-40.6,38.7-58.6L591.9,572.2L591.9,572.2z"/>
	<path class="st1" d="M817.2,520.2l11.2-71.9h-73.8c1.9,25,4.3,49,7,71.9H817.2z"/>
	<path class="st1" d="M803.7,765.3c0,0-67.5-148.4-72-420.4h-80.9c0,0,20.2,301.3,45,420.4H803.7z"/>
</g>
</svg>
